<svg xmlns="http://www.w3.org/2000/svg" viewBox="0 0 100 100"><rect width="100" height="100" rx="14" fill="#F7DF1E"/><path d="M27 75.5c3.2 1.9 6.8 3.1 10.5 3.1 5.9 0 9.7-2.9 9.7-8.4v-31.5H36.3v30.7c0 2.8-1.5 4.3-4.3 4.3-1.8 0-3.3-.6-4.4-1.6L27 75.5zm40.5-2.2c2.8 1.8 6.4 2.8 10.2 2.8 5.7 0 9-2.8 9-7.2 0-4.8-3.9-6.9-9.5-9.3-6.4-2.8-10.7-6.2-10.7-12.7 0-6.8 5.4-11.9 13.6-11.9 3.8 0 7.1 1.1 9.6 2.8l-3.3 5.4c-2.1-1.3-4.4-2.1-7.1-2.1-4.4 0-7.2 2.4-7.2 5.6 0 4.1 3.5 6 9.3 8.5 7.1 3 11 6.5 11 13.6 0 7.7-5.9 13-15.1 13-4.8 0-8.9-1.3-11.9-3.4l2.1-6.6z" fill="#000000"/></svg>